<?xml version="1.0" encoding="UTF-8"?>
<!-- Generator: Adobe Illustrator 20.0.0, SVG Export Plug-In . SVG Version: 6.00 Build 0)  -->
<svg version="1.1" id="Layer_1" xmlns="http://www.w3.org/2000/svg" xmlns:xlink="http://www.w3.org/1999/xlink" x="0px" y="0px" viewBox="0 0 220 38" style="enable-background:new 0 0 220 38;" xml:space="preserve">
<style type="text/css">
	.st0{fill:#F6B221;}
	.st1{fill:#2C304F;}
	.st2{fill:#FFFFFF;}
</style>
<g>
	<g>
		<g>
			<path class="st0" d="M51.5,37c-0.2,0-0.3,0-0.5,0c-0.2,0-0.4-0.1-0.5-0.1c-0.3-0.1-0.4-0.1-0.6-0.1c-0.2-0.1-0.4-0.1-0.5-0.2     c-1.1-0.4-2.5-1.3-4.2-2.6c-0.8-0.6-1.6-1.2-2.5-1.8c-2.8-1.9-6.4-2.6-8.8-2.6c0,0-0.2,0-0.2,0c-0.2,0-0.6,0-0.9-0.2     c-0.2,0.1-0.3,0.2-0.5,0.3l0,0c-0.1,0-0.1,0.1-0.2,0.1l-0.1,0.1l0,0c-0.1,0.1-0.2,0.1-0.4,0.2l-0.1,0c-0.2,0.1-0.5,0.3-1,0.5     c-0.7,0.4-1.8,0.9-3.6,2c-0.4,0.2-0.7,0.4-1.1,0.6l-0.3,0.1c-0.3,0.1-0.6,0.3-0.9,0.4L24.2,33l0.3,0.7c-0.4,0.2-0.7,0.3-1,0.4     l-0.2,0c-0.3,0.1-0.6,0.2-0.8,0.3l-0.2,0.1c-0.3,0.1-0.6,0.1-0.9,0.2l-0.2,0c-0.3,0-0.5,0.1-0.7,0.1l-0.2,0     c-0.3,0-0.5,0.1-0.8,0.1c-0.3,0-0.5,0-0.8,0h-0.1c-0.4,0-0.8,0-1.2,0c-0.5,0-0.9-0.1-1.3-0.1c-1.4-0.2-6.1-1.1-8.3-5     c-0.4-0.7-0.4-1.6,0-2.5c-1.7-0.3-5.1-1.4-5.9-3.1c-0.3-0.5-0.3-1.1,0-1.6c0.2-0.4,0.5-1,0.9-1.6c0.5-0.8,1.1-1.7,1.4-2.5     c0-0.1,0.1-0.2,0.2-0.3c0-0.1,0-0.3,0-0.4l0,0c0.6-2,1.4-3.1,2.6-3.4c0.2,0,0.4-0.1,0.6-0.1c0.9,0,1.7,0.5,2.3,0.8     c0.1,0.1,0.2,0.1,0.4,0.2c0.1-0.2,0.3-0.4,0.6-0.4c-0.1-0.4-0.1-0.7,0.1-1.3c0,0,0-0.1,0-0.1c0-0.1,0.1-0.3,0.2-0.4l0.1-0.1     c0.1-0.2,0.2-0.3,0.2-0.4c0-0.1,0.1-0.1,0.1-0.2c0.1-0.1,0.2-0.3,0.3-0.4l0.1-0.2c0.2-0.2,0.3-0.4,0.5-0.6     c0.2-0.2,0.5-0.5,0.7-0.7l0.2-0.2c0.2-0.2,0.3-0.3,0.5-0.4c0.1-0.1,0.2-0.1,0.3-0.2c0.1-0.1,0.3-0.2,0.4-0.3l0.2-0.2     c0.2-0.1,0.4-0.3,0.5-0.4l0.3-0.2c0.2-0.1,0.4-0.2,0.6-0.3c0,0,0.1-0.1,0.1-0.1C16.5,8,16.7,7.9,17,7.8l0.1-0.1     c0.2-0.1,0.4-0.2,0.6-0.3l0.3-0.1c0.1-0.1,0.3-0.1,0.4-0.2l0.3-0.1l0.7-0.2c0.2,0,0.6-0.2,0.6-0.2c0.3-0.1,0.5-0.1,0.7-0.2     c0,0,0.5-0.1,0.7-0.1c0,0,0.5-0.1,0.6-0.1c0.1,0,0.8-0.1,0.8-0.1l0.6,0c0.2,0,0.4,0,0.5,0c0.3,0,0.5,0,0.7,0l0.1,0     c0.2,0,0.4,0,0.6,0l0.1,0c0.2,0,0.3,0,0.5,0.1c0.2,0,0.3,0,0.5,0.1c0,0,0.4,0.1,0.4,0.1s0.5,0.1,0.5,0.1c0.1,0,0.2,0.1,0.3,0.1     C28,3.5,30.8,1,34.2,1c3.7,0,6.6,3,6.6,6.6c0,2.8-1.8,5.3-4.4,6.2c0.1,0.1,0.2,0.2,0.2,0.3c0.3,0.8,1.6,2.1,2.4,2.5     c0.8,0.4,1.7,0.6,2.6,0.6c0.5,0,1-0.1,1.4-0.2c1.6-0.6,2.1-1,2.6-1.4c0.3-0.3,0.6-0.6,1.2-0.9c0.5-0.2,1.1-0.3,1.6-0.3     c1.8,0,3.3,1.3,3.5,3.1c0.2,1.6-0.5,3-2.3,4.3c-1.1,0.8-2.3,1.4-3.5,1.9c2.1,1.2,7.7,5,8.4,5.6c1,0.9,3.2,2.7,0.8,5.7     c-0.1,0.2-0.3,0.4-0.4,0.5L55,35.5c-0.1,0.1-0.3,0.2-0.4,0.3c0,0-0.1,0.1-0.1,0.1c-0.1,0.1-0.2,0.2-0.3,0.2L54,36.3     c-0.1,0.1-0.2,0.1-0.3,0.2c-0.1,0.1-0.2,0.1-0.2,0.1c-0.1,0.1-0.3,0.1-0.4,0.2c-0.2,0.1-0.4,0.1-0.5,0.2c0,0-0.2,0-0.2,0l-0.2,0     c0,0-0.2,0-0.3,0C51.8,37,51.6,37,51.5,37C51.5,37,51.5,37,51.5,37z M18.5,26.4c0,0.1-0.1,0.2-0.1,0.3c0.3,0,0.6,0,0.9-0.1     c0,0,0.1,0,0.1,0c0.2,0,0.4-0.1,0.5-0.2c1.1-0.5,2.4-2.8,2.5-3.3c0-0.2,0-0.9-0.1-1.4c-0.1-1.3-0.3-3.1,0-4.5     c0.2-1.1,0.4-2,0.7-2.8c-0.1,0-0.1,0-0.2,0c-0.1,0-0.2,0-0.3,0c0,0-1.1-0.1-1.1-0.1l-0.1-0.7l0,0.7c0,0-0.4,0-0.4,0     c-0.1,0-0.2,0-0.3,0c-0.1,0-0.3,0-0.4,0c-0.2,0-0.3,0-0.4,0l-0.1,0c-0.1,0-0.2,0-0.2,0l-0.1,0c-0.1,0-0.1,0-0.2,0.1     c0,0-0.1,0.1-0.1,0.1c0,0-0.1,0-0.1,0.1L19,14.6c0,0-0.2,0.2-0.2,0.2c0,0-0.1,0.1-0.1,0.1c0,0-0.1,0.1-0.1,0.1     c0,0.1-0.1,0.2-0.1,0.3c-0.1,0.3-0.6,0.8-1,1.3c0,0,0.1,0,0.1,0c0.2,0.1,0.4,0.4,0.5,0.8c0,0.3,0,0.7-0.1,1     c0.8,0.4,1.8,0.9,2.3,1.2c0.3,0.2,0.6,0.5,0.7,0.9c0.3,1-0.5,2.2-1.2,3.6c-0.4,0.7-0.9,1.5-1,2c0,0,0,0.1,0,0.1     C18.6,26.2,18.6,26.3,18.5,26.4z"/>
		</g>
		<path class="st1" d="M34.2,1.7c3.3,0,5.9,2.6,5.9,5.9c0,3.2-2.6,5.8-5.8,5.9c-2.1-0.1-5.2-1.1-5.8-5.2c0-0.1,0-0.1,0-0.3    c0-0.1,0-0.3,0-0.4C28.3,4.3,30.9,1.7,34.2,1.7 M24,6.9c0.2,0,0.4,0,0.6,0c0,0,0.1,0,0.1,0c0.2,0,0.4,0,0.6,0c0,0,0.1,0,0.1,0    c0.2,0,0.3,0,0.5,0c0,0,0,0,0,0c0.2,0,0.3,0,0.4,0.1c0,0,0.1,0,0.1,0c0.1,0,0.2,0,0.3,0.1c0,0,0,0,0,0c0.1,0,0.2,0,0.2,0    c-0.2,6.5,6.2,8.4,9.1,7.4c0,0,0.1,0,0.1,0c0.4,0.9,1.6,2.1,2.6,2.6c0.9,0.4,1.9,0.7,3,0.7c0.6,0,1.1-0.1,1.7-0.3    c2.8-1,2.6-1.7,3.8-2.3c0.4-0.2,0.9-0.3,1.3-0.3c1.4,0,2.6,0.9,2.8,2.5c0.2,1.2-0.4,2.4-2,3.6C46.2,23.4,43,24,39.7,24    c-3.3,0-5.6-1-6.8-1.9c-1.2-0.8-2.3-1.6-3.3-2c-0.9-0.3-1.4-0.2-1.4-0.2c-0.1,0,0.6,0.2,0.7,0.3c0.1,0.1,0.6,0.3,1.3,0.6    c1.6,0.9,1.8,1.3,4.1,2.6c1.1,0.6,3.6,1.4,6.1,1.4c0.4,0,0.7,0,1.1,0c2.1-0.2,2.9-0.5,3.8-0.7c0.5,0.1,7.8,4.9,8.9,5.8    c1.1,0.9,2.6,2.3,0.7,4.7c-0.1,0.2-0.3,0.3-0.4,0.5c0,0-0.1,0.1-0.1,0.1c-0.1,0.1-0.2,0.2-0.3,0.3c0,0-0.1,0.1-0.1,0.1    c-0.1,0.1-0.2,0.1-0.3,0.2c0,0-0.1,0.1-0.1,0.1c-0.1,0.1-0.2,0.1-0.3,0.2c0,0-0.1,0-0.1,0.1c-0.1,0.1-0.2,0.1-0.3,0.1c0,0,0,0,0,0    c-0.1,0-0.3,0.1-0.4,0.1c0,0-0.1,0-0.1,0c-0.1,0-0.2,0-0.3,0c0,0-0.1,0-0.1,0c-0.1,0-0.2,0-0.2,0c0,0-0.1,0-0.1,0c0,0,0,0,0,0    c-0.2,0-0.3,0-0.5,0c0,0,0,0-0.1,0c-0.1,0-0.3,0-0.4-0.1c0,0-0.1,0-0.1,0c-0.1,0-0.3-0.1-0.4-0.1c0,0-0.1,0-0.1,0    c-0.1,0-0.3-0.1-0.4-0.1c-1.5-0.5-3.7-2.4-6.5-4.3c-2.8-1.9-6.4-2.8-9.3-2.8c-0.1,0-0.3,0-0.3,0c-1.1,0,0.2-0.7,0.6-1.8    c0,0-0.8,1.2-2.3,2c0,0-2.3,1.4-5.3,2.9c-0.3,0.2-0.7,0.4-1,0.5c-0.1,0-0.2,0.1-0.3,0.1c-0.3,0.1-0.6,0.3-0.8,0.4    c-0.1,0-0.1,0-0.2,0.1c-0.3,0.1-0.6,0.2-0.9,0.3c-0.1,0-0.2,0-0.2,0.1c-0.2,0.1-0.5,0.1-0.7,0.2c-0.1,0-0.1,0-0.2,0.1    c-0.3,0.1-0.6,0.1-0.8,0.2c-0.1,0-0.1,0-0.2,0c-0.2,0-0.5,0.1-0.7,0.1c-0.1,0-0.1,0-0.2,0c-0.3,0-0.5,0.1-0.8,0.1c0,0,0,0,0,0    c-0.3,0-0.5,0-0.7,0c0,0-0.1,0-0.1,0c-0.4,0-0.8,0-1.1,0c0,0-0.1,0-0.1,0c-0.4,0-0.8-0.1-1.1-0.1c-2.7-0.3-6.1-1.7-7.7-4.6    C7.7,28.1,9.3,25.3,11,25c0.1,0,0.2,0,0.3,0c0,0,0.1,0,0.1,0c2,0,3.3,1.4,4.3,1.9c0.4,0.2,0.9,0.4,1.4,0.5c0,0,0,0,0,0    c0,0,0.1,0,0.1,0c0.2,0,0.4,0.1,0.6,0.1c0.1,0,0.1,0,0.2,0c0.1,0,0.1,0,0.2,0c0.4,0,0.8,0,1.2-0.1c0.1,0,0.1,0,0.1,0    c0.2-0.1,0.5-0.1,0.7-0.2c1.4-0.6,2.8-3.1,3-3.8c0.1-0.7-0.4-3.8-0.1-5.9c0.3-2,0.9-3.5,1.8-5.2c0,0-1.3,1.5-2,1.5    c-0.1,0-0.1,0-0.2,0c0,0-0.1,0-0.1,0c-0.1,0-0.1,0-0.2,0c0,0-0.1,0-0.1,0c-0.1,0-0.2,0-0.2,0c-0.1,0-0.1,0-0.2,0    c-0.1,0-0.1,0-0.2,0c-0.1,0-0.1,0-0.2,0c-0.1,0-0.1,0-0.2,0c-0.1,0-0.1,0-0.2,0c0,0-0.1,0-0.1,0c-0.1,0-0.2,0-0.4,0c0,0,0,0,0,0    c-0.1,0-0.3,0-0.4,0c0,0-0.1,0-0.1,0c-0.1,0-0.2,0-0.3,0c0,0-0.1,0-0.1,0c-0.1,0-0.2,0-0.3,0.1c-0.1,0-0.1,0-0.2,0    c-0.1,0-0.2,0.1-0.2,0.1c-0.1,0-0.1,0-0.2,0.1c-0.1,0-0.1,0.1-0.2,0.1c0,0-0.1,0.1-0.1,0.1c-0.1,0-0.1,0.1-0.2,0.2    c0,0-0.1,0.1-0.1,0.1c-0.1,0.1-0.1,0.1-0.2,0.2c0,0-0.1,0.1-0.1,0.1c-0.1,0.1-0.1,0.3-0.2,0.4c-0.1,0.3-1.4,1.6-1.6,1.8    c-0.2,0.2-0.4,0.2-0.6,0.2c-0.1,0-0.3,0-0.4,0c-0.4,0-1.1-0.4-1.7-0.7c-0.8-0.3-1.6-0.4-1.9-1.1c-0.2-0.5-0.3-0.7-0.1-1.4    c0,0,0-0.1,0-0.1c0-0.1,0.1-0.3,0.1-0.4c0-0.1,0-0.1,0.1-0.2c0.1-0.1,0.1-0.2,0.2-0.3c0-0.1,0.1-0.1,0.1-0.2    c0.1-0.1,0.2-0.2,0.3-0.4c0-0.1,0.1-0.1,0.1-0.2c0.1-0.2,0.3-0.4,0.5-0.5c0.2-0.2,0.4-0.4,0.7-0.6c0.1-0.1,0.1-0.1,0.2-0.2    c0.1-0.1,0.3-0.3,0.5-0.4c0.1-0.1,0.2-0.1,0.3-0.2c0.1-0.1,0.3-0.2,0.4-0.3c0.1-0.1,0.2-0.1,0.3-0.2c0.1-0.1,0.3-0.2,0.4-0.3    c0.1-0.1,0.2-0.1,0.2-0.2c0.2-0.1,0.4-0.2,0.6-0.3c0,0,0.1,0,0.1-0.1c0.2-0.1,0.4-0.2,0.7-0.3c0.1,0,0.1-0.1,0.2-0.1    c0.2-0.1,0.3-0.1,0.5-0.2C18,8.1,18.1,8,18.2,8c0.1-0.1,0.3-0.1,0.4-0.2c0.1,0,0.2-0.1,0.3-0.1c0.1,0,0.3-0.1,0.4-0.1    c0.1,0,0.2-0.1,0.2-0.1c0.2,0,0.3-0.1,0.5-0.1c0.1,0,0.1,0,0.2,0c0.2-0.1,0.4-0.1,0.6-0.1c0.1,0,0.1,0,0.2,0    c0.1,0,0.3-0.1,0.4-0.1c0.1,0,0.2,0,0.2,0c0.1,0,0.3,0,0.4,0c0.1,0,0.2,0,0.2,0c0.1,0,0.2,0,0.4,0c0.1,0,0.1,0,0.2,0    c0.1,0,0.3,0,0.4,0c0,0,0.1,0,0.2,0C23.6,6.9,23.8,6.9,24,6.9C24,6.9,24,6.9,24,6.9 M7.6,15c1.1,0,2.2,1,3,1.2    c0.3-0.5,0.4-0.7,0.4-0.7c0,0,0,0.6,0.7,0.9c0.7,0.3,3.1,1.1,3.6,1.3c0.1,0,0.2,0,0.4,0c0.5,0,1.3-0.2,1.5-0.7    c0.3,0.2,0.2,1.1-0.2,1.6c0.6,0.2,2.3,1.1,2.9,1.4c1.4,0.8-1.5,3.9-1.9,5.7c0,0-0.2,0.6-0.2,0.6c-0.9,0-2-0.8-2.3-1    c-1.1-0.9-2.7-1.4-4-1.5c0,0-0.1,0-0.1,0c-0.8,0-2.1,0.3-3.4,2.5c-2.5-0.5-6.2-2-5.5-3.6c0.4-1,1.7-2.6,2.3-4.2    c0.1,0.4,11.7,4.3,14,5.1C15,22.3,4.8,18.5,5.1,18c0.3-1.1,0.9-2.6,2.1-2.9C7.3,15,7.4,15,7.6,15 M34.2,0.2    c-3.4,0-6.3,2.4-7.1,5.5c0,0,0,0-0.1,0c0,0,0,0,0,0c-0.1,0-0.2,0-0.3-0.1c0,0-0.1,0-0.1,0c-0.1,0-0.3,0-0.4-0.1c0,0,0,0-0.1,0    c-0.2,0-0.3,0-0.5,0c0,0-0.1,0-0.1,0c-0.2,0-0.4,0-0.6,0l-0.1,0c-0.2,0-0.4,0-0.6,0c0,0,0,0,0,0h-0.1c-0.2,0-0.4,0-0.6,0l-0.1,0    c0,0-0.1,0-0.1,0l-0.1,0l-0.3,0c0,0,0,0-0.1,0l-0.2,0c-0.2,0-0.3,0-0.4,0c-0.1,0-0.2,0-0.3,0c-0.1,0-0.3,0-0.4,0.1l-0.1,0l-0.1,0    c-0.2,0-0.3,0.1-0.5,0.1l-0.1,0c-0.1,0-0.1,0-0.2,0c-0.2,0-0.4,0.1-0.7,0.2c0,0,0,0-0.1,0l-0.1,0c-0.2,0.1-0.4,0.1-0.5,0.1l-0.1,0    l-0.1,0c0,0,0,0-0.1,0l-0.2,0.1l-0.2,0.1c-0.1,0-0.2,0.1-0.3,0.1c-0.1,0-0.3,0.1-0.4,0.2l-0.3,0.1c-0.2,0.1-0.3,0.1-0.5,0.2    l-0.1,0c-0.1,0-0.1,0.1-0.2,0.1c-0.2,0.1-0.5,0.2-0.7,0.4l-0.1,0c0,0,0,0-0.1,0c-0.2,0.1-0.4,0.2-0.6,0.4L15,8.1l-0.1,0.1    c-0.2,0.1-0.3,0.2-0.5,0.3l-0.1,0l-0.2,0.2C14,8.8,13.8,8.9,13.6,9c-0.1,0.1-0.2,0.1-0.3,0.2c-0.2,0.1-0.3,0.3-0.5,0.4l-0.1,0.1    l-0.1,0.1c-0.2,0.2-0.5,0.5-0.7,0.7c-0.2,0.2-0.4,0.4-0.6,0.6c0,0.1-0.1,0.1-0.1,0.2l0,0c-0.1,0.1-0.2,0.3-0.3,0.5    c0,0.1-0.1,0.2-0.1,0.2c-0.1,0.1-0.1,0.3-0.2,0.4c0,0,0,0.1,0,0.1c0,0.1-0.1,0.1-0.1,0.2c-0.1,0.1-0.1,0.3-0.2,0.5    c0,0.1,0,0.1-0.1,0.2c-0.1,0.4-0.2,0.7-0.2,0.9c-0.7-0.4-1.5-0.8-2.5-0.8c-0.3,0-0.5,0-0.7,0.1c-1.4,0.4-2.5,1.7-3.1,3.9h0    c0,0.1-0.1,0.3-0.1,0.4c0,0.1-0.1,0.1-0.1,0.2c-0.3,0.8-0.8,1.6-1.3,2.4c-0.4,0.6-0.8,1.2-1,1.7c-0.3,0.7-0.3,1.5,0.1,2.2    c0.9,1.9,4.1,2.9,5.6,3.3c-0.2,0.9-0.1,1.7,0.3,2.4c1.6,2.8,4.9,4.8,8.8,5.3c0.4,0,0.8,0.1,1.2,0.1c0,0,0,0,0.1,0c0,0,0,0,0,0    c0.4,0,0.8,0,1.2,0h0.2c0.3,0,0.5,0,0.8,0c0,0,0.1,0,0.1,0c0.3,0,0.6,0,0.9-0.1c0,0,0.1,0,0.2,0l0.1,0c0.3,0,0.5-0.1,0.8-0.1    l0.1,0c0,0,0,0,0,0c0.3-0.1,0.6-0.1,0.9-0.2c0,0,0.1,0,0.2,0l0.1,0c0.3-0.1,0.5-0.1,0.8-0.2l0.1,0l0.2-0.1c0.3-0.1,0.6-0.2,1-0.4    l0.1,0l0.1,0c0,0,0,0,0,0c0.3-0.1,0.6-0.3,0.9-0.4c0.1,0,0.2-0.1,0.3-0.1c0.4-0.2,0.7-0.4,1.1-0.6c1.8-1,2.9-1.6,3.6-1.9    c0.5-0.2,0.8-0.4,1-0.6l0,0c0.1-0.1,0.3-0.1,0.5-0.2l0,0l0.1-0.1c0,0,0.1-0.1,0.2-0.1c0.1,0,0.1-0.1,0.2-0.1    c0.2,0.1,0.5,0.1,0.9,0.1h0.1l0.2,0c2.3,0,5.7,0.7,8.4,2.5c0.9,0.6,1.7,1.2,2.5,1.8c1.8,1.3,3.2,2.3,4.4,2.7    c0.1,0,0.3,0.1,0.4,0.1c0,0,0.1,0,0.1,0c0.2,0,0.3,0.1,0.5,0.1c0,0,0.1,0,0.1,0c0,0,0,0,0,0c0.2,0,0.4,0.1,0.5,0.1    c0,0,0.1,0,0.1,0c0.2,0,0.4,0,0.6,0c0,0,0,0,0.1,0h0.1c0.1,0,0.2,0,0.3,0l0.1,0l0.1,0l0.1,0c0,0,0.1,0,0.1,0c0.1,0,0.2,0,0.2,0    l0.1,0c0,0,0.1,0,0.1,0c0,0,0.1,0,0.1,0c0.2,0,0.4-0.1,0.5-0.2c0,0,0.1,0,0.1,0c0,0,0,0,0,0c0.1-0.1,0.3-0.1,0.4-0.2    c0,0,0.1,0,0.1-0.1c0,0,0,0,0.1,0c0.1-0.1,0.2-0.1,0.4-0.2l0.2-0.1c0.1-0.1,0.2-0.2,0.3-0.3c0.1-0.1,0.1-0.1,0.2-0.2    c0.1-0.1,0.2-0.2,0.3-0.3l0.1,0l0.1-0.1c0.2-0.2,0.3-0.4,0.5-0.6c2.8-3.5,0.1-5.8-0.9-6.7c-0.5-0.4-4.6-3.3-7.3-4.9    c0.8-0.4,1.6-0.9,2.4-1.4c2.5-1.8,2.8-3.7,2.6-5c-0.3-2.2-2.1-3.7-4.3-3.7c-0.6,0-1.3,0.1-1.9,0.4c-0.7,0.3-1.1,0.7-1.4,1    c-0.4,0.4-0.8,0.8-2.3,1.3c-0.4,0.1-0.8,0.2-1.2,0.2c-0.8,0-1.6-0.2-2.3-0.6c-0.6-0.3-1.5-1.2-1.9-1.8c2.4-1.2,4-3.7,4-6.5    C41.5,3.5,38.2,0.2,34.2,0.2L34.2,0.2z M19.6,15.1L19.6,15.1L19.6,15.1c0.1,0,0.1-0.1,0.2-0.1l0.1,0c0.1,0,0.1,0,0.2,0    c0,0,0.1,0,0.1,0c0.1,0,0.2,0,0.3,0c0,0,0.1,0,0.1,0c0.1,0,0.2,0,0.3,0c0.1,0,0.2,0,0.3,0c0,0,0,0,0.1,0c0,0,0,0,0.1,0    c0.1,0,0.1,0,0.2,0c0,0,0.1,0,0.1,0l0.1,0l0.2,0l0.1,0c0,0,0,0,0.1,0l0.1,0l0.1,0l0.1,0l0.1,0c-0.2,0.6-0.3,1.3-0.4,2    c-0.2,1.1-0.1,2.2-0.1,3.3c0,0,0-0.1,0-0.1c-0.2-0.6-0.5-1-1-1.3c-0.3-0.2-1.1-0.6-1.8-0.9c0-0.3,0-0.5,0-0.7    c0-0.3-0.1-0.6-0.3-0.8c0.3-0.4,0.6-0.8,0.7-1c0,0,0-0.1,0.1-0.1c0,0,0-0.1,0.1-0.1l0,0c0,0,0,0,0,0l0,0c0,0,0,0,0,0c0,0,0,0,0,0    L19.6,15.1L19.6,15.1C19.5,15.1,19.5,15.1,19.6,15.1L19.6,15.1z M19.5,25.7c0.2-0.4,0.5-0.9,0.7-1.4c0.7-1.2,1.3-2.3,1.4-3.3    c0,0.2,0,0.4,0,0.6c0,0.5,0.1,1,0.1,1.2c-0.2,0.6-1.3,2.4-2.1,2.8C19.6,25.7,19.6,25.7,19.5,25.7L19.5,25.7z"/>
	</g>
	<g>
		<g>
			<path class="st2" d="M67.8,16.1c0.3-0.6,0.7-1.1,1.3-1.5c0.5-0.4,1.1-0.7,1.9-0.9c0.7-0.2,1.5-0.3,2.4-0.3c0.7,0,1.3,0.1,2,0.2     c0.7,0.1,1.2,0.4,1.8,0.7c0.5,0.3,0.9,0.8,1.3,1.4c0.3,0.6,0.5,1.4,0.5,2.4v7.8c0,0.7,0.4,1.1,1.1,1.1c0.2,0,0.4,0,0.6-0.1v1.5     c-0.2,0-0.4,0.1-0.6,0.1c-0.2,0-0.4,0-0.6,0c-0.5,0-0.8-0.1-1.1-0.2c-0.3-0.1-0.5-0.3-0.6-0.5c-0.2-0.2-0.3-0.5-0.3-0.8     c0-0.3-0.1-0.7-0.1-1h-0.1c-0.3,0.5-0.7,0.9-1,1.3c-0.3,0.4-0.7,0.7-1.1,0.9c-0.4,0.2-0.9,0.4-1.4,0.6c-0.5,0.1-1.2,0.2-1.9,0.2     c-0.7,0-1.3-0.1-1.9-0.2c-0.6-0.2-1.1-0.4-1.6-0.8c-0.5-0.4-0.8-0.8-1.1-1.3c-0.3-0.5-0.4-1.2-0.4-1.9c0-1,0.2-1.8,0.7-2.4     c0.5-0.6,1.1-1,1.8-1.3c0.8-0.3,1.6-0.5,2.6-0.6c1-0.1,1.9-0.2,2.9-0.4c0.4,0,0.7-0.1,1-0.1c0.3-0.1,0.5-0.2,0.7-0.3     c0.2-0.1,0.3-0.3,0.4-0.6c0.1-0.2,0.2-0.6,0.2-1c0-0.6-0.1-1.1-0.3-1.5c-0.2-0.4-0.5-0.7-0.8-0.9c-0.4-0.2-0.8-0.4-1.2-0.5     c-0.5-0.1-1-0.1-1.5-0.1c-1.2,0-2.1,0.3-2.8,0.8c-0.7,0.5-1.1,1.4-1.2,2.6h-1.8C67.3,17.4,67.5,16.7,67.8,16.1z M76.9,20.5     c-0.1,0.2-0.3,0.4-0.7,0.5c-0.3,0.1-0.6,0.2-0.9,0.2c-0.8,0.1-1.6,0.3-2.4,0.4c-0.8,0.1-1.6,0.3-2.2,0.5     c-0.7,0.2-1.2,0.5-1.7,0.9c-0.4,0.4-0.6,0.9-0.6,1.7c0,0.5,0.1,0.9,0.3,1.2c0.2,0.4,0.4,0.7,0.7,0.9c0.3,0.3,0.7,0.5,1.1,0.6     c0.4,0.1,0.8,0.2,1.2,0.2c0.7,0,1.4-0.1,2-0.3c0.6-0.2,1.2-0.5,1.7-0.9c0.5-0.4,0.8-0.9,1.1-1.5c0.3-0.6,0.4-1.2,0.4-1.9     L76.9,20.5L76.9,20.5z"/>
			<path class="st2" d="M93.6,28.5v-2.8h-0.1c-0.2,0.5-0.5,0.9-0.9,1.3c-0.4,0.4-0.8,0.7-1.3,1c-0.5,0.3-1,0.5-1.5,0.6     c-0.5,0.2-1.1,0.2-1.6,0.2c-1.1,0-2.1-0.2-3-0.6c-0.8-0.4-1.5-1-2.1-1.7c-0.6-0.7-1-1.5-1.2-2.5c-0.3-0.9-0.4-1.9-0.4-3     c0-1,0.1-2,0.4-3c0.3-0.9,0.7-1.8,1.2-2.5c0.6-0.7,1.3-1.3,2.1-1.7c0.8-0.4,1.8-0.6,3-0.6c0.6,0,1.1,0.1,1.6,0.2     c0.5,0.1,1,0.3,1.5,0.6c0.5,0.3,0.9,0.6,1.2,1c0.4,0.4,0.6,0.9,0.8,1.4h0.1V8.1h1.8v20.4H93.6z M83.6,23.4c0.2,0.8,0.5,1.4,0.9,2     c0.4,0.6,0.9,1.1,1.5,1.4c0.6,0.4,1.4,0.6,2.2,0.6c1,0,1.8-0.2,2.4-0.6c0.7-0.4,1.2-0.9,1.6-1.4c0.4-0.6,0.7-1.3,0.9-2     c0.2-0.8,0.3-1.5,0.3-2.3c0-0.8-0.1-1.5-0.3-2.3c-0.2-0.8-0.5-1.4-0.9-2c-0.4-0.6-1-1.1-1.6-1.4c-0.7-0.4-1.5-0.6-2.4-0.6     c-0.9,0-1.6,0.2-2.2,0.6c-0.6,0.4-1.1,0.9-1.5,1.4c-0.4,0.6-0.7,1.3-0.9,2c-0.2,0.8-0.3,1.5-0.3,2.3     C83.3,21.9,83.4,22.7,83.6,23.4z"/>
			<path class="st2" d="M100.1,13.8v3.5h0.1c0.5-1.2,1.2-2.1,2.1-2.8c1-0.6,2.1-0.9,3.5-0.9v1.8c-0.8,0-1.6,0.1-2.3,0.3     c-0.7,0.3-1.3,0.6-1.7,1.1c-0.5,0.5-0.9,1-1.1,1.7c-0.3,0.7-0.4,1.4-0.4,2.2v7.9h-1.8V13.8H100.1z"/>
			<path class="st2" d="M108.1,23.6c0.2,0.7,0.5,1.3,0.9,1.9c0.4,0.6,0.9,1,1.5,1.4c0.6,0.4,1.4,0.5,2.2,0.5c1.3,0,2.4-0.3,3.1-1     c0.8-0.7,1.3-1.6,1.6-2.7h1.8c-0.4,1.7-1.1,3-2.1,3.9c-1,0.9-2.5,1.4-4.4,1.4c-1.2,0-2.2-0.2-3-0.6c-0.9-0.4-1.6-1-2.1-1.7     c-0.5-0.7-0.9-1.5-1.2-2.5c-0.3-0.9-0.4-1.9-0.4-3c0-1,0.1-1.9,0.4-2.9c0.3-0.9,0.7-1.8,1.2-2.5c0.5-0.7,1.2-1.3,2.1-1.8     c0.9-0.4,1.9-0.7,3-0.7c1.2,0,2.2,0.2,3.1,0.7c0.8,0.5,1.5,1.1,2.1,1.9c0.5,0.8,0.9,1.7,1.1,2.7c0.2,1,0.3,2,0.3,3h-11.5     C107.8,22.3,107.9,22.9,108.1,23.6z M117.1,18.1c-0.2-0.6-0.5-1.2-0.9-1.7c-0.4-0.5-0.9-0.9-1.5-1.2c-0.6-0.3-1.2-0.4-2-0.4     c-0.7,0-1.4,0.1-2,0.4c-0.6,0.3-1.1,0.7-1.5,1.2c-0.4,0.5-0.7,1-1,1.7c-0.2,0.6-0.4,1.3-0.5,2h9.6     C117.4,19.4,117.3,18.8,117.1,18.1z"/>
			<path class="st2" d="M130,16.6c-0.2-0.4-0.5-0.7-0.9-1c-0.4-0.3-0.8-0.5-1.2-0.6c-0.5-0.1-1-0.2-1.5-0.2c-0.4,0-0.8,0-1.2,0.1     c-0.4,0.1-0.8,0.2-1.1,0.4c-0.3,0.2-0.6,0.5-0.8,0.8c-0.2,0.3-0.3,0.7-0.3,1.2c0,0.4,0.1,0.7,0.3,1c0.2,0.3,0.5,0.5,0.8,0.7     c0.3,0.2,0.6,0.3,1,0.5c0.4,0.1,0.7,0.2,1,0.3l2.4,0.5c0.5,0.1,1,0.2,1.5,0.4c0.5,0.2,1,0.5,1.4,0.8c0.4,0.3,0.7,0.7,1,1.2     c0.2,0.5,0.4,1,0.4,1.7c0,0.8-0.2,1.5-0.6,2c-0.4,0.6-0.8,1-1.4,1.4c-0.6,0.4-1.2,0.6-1.9,0.8c-0.7,0.2-1.4,0.2-2.1,0.2     c-1.8,0-3.2-0.4-4.3-1.2c-1.1-0.8-1.7-2.1-1.9-3.9h1.8c0.1,1.2,0.5,2.1,1.3,2.8c0.8,0.6,1.8,0.9,3,0.9c0.4,0,0.9,0,1.4-0.1     c0.5-0.1,0.9-0.3,1.3-0.5c0.4-0.2,0.7-0.5,1-0.9c0.3-0.4,0.4-0.8,0.4-1.3c0-0.4-0.1-0.8-0.3-1.1c-0.2-0.3-0.4-0.5-0.7-0.7     c-0.3-0.2-0.7-0.4-1.1-0.5c-0.4-0.1-0.8-0.2-1.2-0.3l-2.3-0.5c-0.6-0.2-1.1-0.3-1.6-0.5c-0.5-0.2-0.9-0.4-1.3-0.7     c-0.4-0.3-0.7-0.7-0.9-1.1c-0.2-0.4-0.3-1-0.3-1.6c0-0.7,0.2-1.4,0.5-1.9c0.3-0.5,0.8-1,1.3-1.3c0.5-0.3,1.1-0.6,1.8-0.7     c0.7-0.2,1.3-0.2,2-0.2c0.8,0,1.4,0.1,2.1,0.3c0.6,0.2,1.2,0.5,1.7,0.9c0.5,0.4,0.9,0.9,1.2,1.5c0.3,0.6,0.4,1.3,0.5,2.1h-1.8     C130.3,17.5,130.2,17,130,16.6z"/>
			<path class="st2" d="M148.9,29.4c0,2-0.8,3.6-2.4,4.9c-1.5,1.1-3.2,1.6-5.3,1.6c-2,0-3.7-0.5-5.1-1.6c-1.5-1.2-2.3-2.8-2.3-4.9     h3.8c0,1,0.3,1.7,1,2.3c0.6,0.5,1.4,0.7,2.3,0.7c1,0,1.9-0.3,2.7-0.9c0.8-0.6,1.2-1.5,1.2-2.5v-2.3c-0.3,0.7-0.8,1.2-1.6,1.6     c-0.8,0.4-1.6,0.6-2.6,0.6c-1.6,0-3-0.4-4.2-1.3c-1.4-1-2.2-2.4-2.4-4.2c-0.2-1.3-0.3-2.3-0.3-3c0-1.3,0.3-2.6,0.9-3.8     c0.5-1.1,1.4-2,2.4-2.7c1.1-0.7,2.2-1,3.4-1c1.9,0,3.3,0.8,4.2,2.3c0,0,0,0,0.1,0c0,0,0-0.3,0-0.7v-1.2h4.1V29.4z M144.9,21.3     c0-3.3-1.1-4.9-3.4-4.9c-2.3,0-3.5,1.6-3.5,4.7c0,1.5,0.4,2.6,1.1,3.5c0.6,0.8,1.4,1.1,2.4,1.1c0.9,0,1.7-0.4,2.4-1.1     C144.5,23.7,144.9,22.6,144.9,21.3z"/>
			<path class="st2" d="M164,22h-10.6c0.1,1.3,0.5,2.2,1.2,2.9c0.6,0.6,1.4,0.9,2.3,0.9c0.7,0,1.2-0.2,1.8-0.5     c0.5-0.3,0.9-0.7,1-1.2h4.2c-0.5,1.5-1.3,2.7-2.5,3.6c-1.2,0.8-2.6,1.3-4.2,1.3c-5.1,0-7.7-2.8-7.7-8.3c0-2.3,0.6-4.2,1.9-5.6     c1.3-1.4,3.1-2.1,5.5-2.1C161.6,12.9,164,15.9,164,22z M159.9,19.4c-0.1-1-0.4-1.8-1.1-2.4c-0.6-0.6-1.3-0.9-2.1-0.9     c-0.8,0-1.4,0.3-2,0.8c-0.6,0.6-1,1.4-1.2,2.5H159.9z"/>
			<path class="st2" d="M177.5,28.5h-13.3v-3.1l7.9-8.9h-7.3v-3.2h12.5v3.3l-7.8,8.7h8.1V28.5z"/>
			<path class="st2" d="M192.9,29.4c0,2-0.8,3.6-2.4,4.9c-1.5,1.1-3.2,1.6-5.3,1.6c-2,0-3.7-0.5-5.1-1.6c-1.5-1.2-2.3-2.8-2.3-4.9     h3.8c0,1,0.3,1.7,1,2.3c0.6,0.5,1.4,0.7,2.3,0.7c1,0,1.9-0.3,2.7-0.9c0.8-0.6,1.2-1.5,1.2-2.5v-2.3c-0.3,0.7-0.8,1.2-1.6,1.6     c-0.8,0.4-1.6,0.6-2.6,0.6c-1.6,0-3-0.4-4.2-1.3c-1.4-1-2.2-2.4-2.4-4.2c-0.2-1.3-0.3-2.3-0.3-3c0-1.3,0.3-2.6,0.9-3.8     c0.5-1.1,1.4-2,2.4-2.7c1.1-0.7,2.2-1,3.4-1c1.9,0,3.3,0.8,4.2,2.3c0,0,0,0,0.1,0c0,0,0-0.3,0-0.7v-1.2h4.1V29.4z M189,21.3     c0-3.3-1.1-4.9-3.4-4.9c-2.3,0-3.5,1.6-3.5,4.7c0,1.5,0.4,2.6,1.1,3.5c0.6,0.8,1.4,1.1,2.4,1.1c0.9,0,1.7-0.4,2.4-1.1     C188.6,23.7,189,22.6,189,21.3z"/>
			<path class="st2" d="M198.2,11.5h-4.1V7.7h4.1V11.5z M198.2,28.5h-4.1V13.3h4.1V28.5z"/>
			<path class="st2" d="M213.6,28.5h-4.1v-9.2c0-1.1-0.2-1.8-0.5-2.3c-0.4-0.5-1.1-0.8-2.2-0.8c-2.1,0-3.1,1.2-3.1,3.5v8.7h-4.1     V13.3h3.9v1.4c0,0.6,0,0.8,0,0.8c0,0,0,0,0,0c0.5-0.8,1.2-1.5,2.1-2c0.9-0.5,1.8-0.7,2.8-0.7c2,0,3.5,0.8,4.4,2.4     c0.4,0.8,0.6,1.7,0.6,2.7V28.5z"/>
			<path class="st2" d="M219,11.5h-4.1V7.7h4.1V11.5z M219,28.5h-4.1V13.3h4.1V28.5z"/>
		</g>
	</g>
</g>
</svg>